<svg width="52" height="16" viewBox="0 0 52 16" fill="none" xmlns="http://www.w3.org/2000/svg">
<path d="M3.0625 0.78125V15H0.611328V0.78125H3.0625ZM11.7988 6.46875V15H10.3281L6.50195 8.88867V15H5.03125V6.46875H6.50195L10.3398 12.5918V6.46875H11.7988ZM16.5848 6.46875V15H15.1258V6.46875H16.5848ZM19.2625 6.46875V7.64062H12.4715V6.46875H19.2625ZM20.0875 6.46875H23.1051C23.7535 6.46875 24.3062 6.56641 24.7633 6.76172C25.2203 6.95703 25.5699 7.24609 25.8121 7.62891C26.0582 8.00781 26.1812 8.47656 26.1812 9.03516C26.1812 9.46094 26.1031 9.83594 25.9469 10.1602C25.7906 10.4844 25.5699 10.7578 25.2848 10.9805C24.9996 11.1992 24.6598 11.3691 24.2652 11.4902L23.8199 11.707H21.107L21.0953 10.541H23.1285C23.4801 10.541 23.773 10.4785 24.0074 10.3535C24.2418 10.2285 24.4176 10.0586 24.5348 9.84375C24.6559 9.625 24.7164 9.37891 24.7164 9.10547C24.7164 8.80859 24.6578 8.55078 24.5406 8.33203C24.4273 8.10938 24.2516 7.93945 24.0133 7.82227C23.775 7.70117 23.4723 7.64062 23.1051 7.64062H21.5582V15H20.0875V6.46875ZM24.9566 15L22.9527 11.168L24.4937 11.1621L26.527 14.9238V15H24.9566ZM34.1488 10.5V10.9688C34.1488 11.6133 34.0648 12.1914 33.8969 12.7031C33.7289 13.2148 33.4887 13.6504 33.1762 14.0098C32.8676 14.3691 32.4965 14.6445 32.0629 14.8359C31.6293 15.0234 31.1488 15.1172 30.6215 15.1172C30.098 15.1172 29.6195 15.0234 29.1859 14.8359C28.7563 14.6445 28.3832 14.3691 28.0668 14.0098C27.7504 13.6504 27.5043 13.2148 27.3285 12.7031C27.1566 12.1914 27.0707 11.6133 27.0707 10.9688V10.5C27.0707 9.85547 27.1566 9.2793 27.3285 8.77148C27.5004 8.25977 27.7426 7.82422 28.0551 7.46484C28.3715 7.10156 28.7445 6.82617 29.1742 6.63867C29.6078 6.44727 30.0863 6.35156 30.6098 6.35156C31.1371 6.35156 31.6176 6.44727 32.0512 6.63867C32.4848 6.82617 32.8578 7.10156 33.1703 7.46484C33.4828 7.82422 33.723 8.25977 33.891 8.77148C34.0629 9.2793 34.1488 9.85547 34.1488 10.5ZM32.6781 10.9688V10.4883C32.6781 10.0117 32.6313 9.5918 32.5375 9.22852C32.4477 8.86133 32.3129 8.55469 32.1332 8.30859C31.9574 8.05859 31.7406 7.87109 31.4828 7.74609C31.225 7.61719 30.934 7.55273 30.6098 7.55273C30.2855 7.55273 29.9965 7.61719 29.7426 7.74609C29.4887 7.87109 29.2719 8.05859 29.0922 8.30859C28.9164 8.55469 28.7816 8.86133 28.6879 9.22852C28.5941 9.5918 28.5473 10.0117 28.5473 10.4883V10.9688C28.5473 11.4453 28.5941 11.8672 28.6879 12.2344C28.7816 12.6016 28.9184 12.9121 29.098 13.166C29.2816 13.416 29.5004 13.6055 29.7543 13.7344C30.0082 13.8594 30.2973 13.9219 30.6215 13.9219C30.9496 13.9219 31.2406 13.8594 31.4945 13.7344C31.7484 13.6055 31.9633 13.416 32.1391 13.166C32.3148 12.9121 32.4477 12.6016 32.5375 12.2344C32.6313 11.8672 32.6781 11.4453 32.6781 10.9688ZM35.9172 6.46875H37.2297L39.6965 13.0488L42.1574 6.46875H43.4699L40.2121 15H39.1691L35.9172 6.46875ZM35.3195 6.46875H36.5676L36.7844 12.1641V15H35.3195V6.46875ZM42.8195 6.46875H44.0734V15H42.6027V12.1641L42.8195 6.46875ZM51.1035 13.834V15H46.5742V13.834H51.1035ZM46.9902 6.46875V15H45.5195V6.46875H46.9902ZM50.5117 10.0312V11.1797H46.5742V10.0312H50.5117ZM51.0742 6.46875V7.64062H46.5742V6.46875H51.0742Z" fill="white"/>
</svg>
