<svg width="24" height="24" viewBox="0 0 24 24" fill="none" xmlns="http://www.w3.org/2000/svg">
<mask id="mask0_782_304" style="mask-type:alpha" maskUnits="userSpaceOnUse" x="0" y="0" width="24" height="24">
<rect x="24" y="24" width="24" height="24" transform="rotate(180 24 24)" fill="#262626"/>
</mask>
<g mask="url(#mask0_782_304)">
<path d="M16.5 5C16.9 5 17.25 5.15 17.55 5.45C17.85 5.75 18 6.1 18 6.5V20.5C18 20.9 17.85 21.25 17.55 21.55C17.25 21.85 16.9 22 16.5 22H5.5C5.1 22 4.75 21.85 4.45 21.55C4.15 21.25 4 20.9 4 20.5V6.5C4 6.1 4.15 5.75 4.45 5.45C4.75 5.15 5.1 5 5.5 5H16.5ZM16.5 6.5H5.5V20.5H16.5V6.5ZM19.5 2C19.9 2 20.25 2.15 20.55 2.45C20.85 2.75 21 3.1 21 3.5V19H19.5V3.5H7V2H19.5Z" fill="#262626"/>
</g>
</svg>
