<svg width="28" height="28" viewBox="0 0 28 28" fill="none" xmlns="http://www.w3.org/2000/svg">
<path d="M0.671272 11.8478L12.6713 1.18109C13.429 0.507516 14.571 0.507516 15.3287 1.18109L27.3287 11.8478C27.7557 12.2273 28 12.7713 28 13.3426V26C28 27.1046 27.1046 28 26 28H20.6667C19.5621 28 18.6667 27.1046 18.6667 26V20.6667C18.6667 19.5621 17.7712 18.6667 16.6667 18.6667H11.3333C10.2288 18.6667 9.33333 19.5621 9.33333 20.6667V26C9.33333 27.1046 8.4379 28 7.33333 28H2C0.89543 28 0 27.1046 0 26V13.3426C0 12.7713 0.244295 12.2273 0.671272 11.8478Z" fill="#BEBEBE"/>
</svg>
