<svg width="100" height="100" viewBox="0 0 100 100" fill="none" xmlns="http://www.w3.org/2000/svg">
<g clip-path="url(#clip0_1387_149)">
<path d="M50 100C77.6142 100 100 77.6142 100 50C100 22.3858 77.6142 0 50 0C22.3858 0 0 22.3858 0 50C0 77.6142 22.3858 100 50 100Z" fill="url(#paint0_linear_1387_149)"/>
<path d="M64.3227 81.25H35.6773C26.3438 81.25 18.75 73.657 18.75 64.3227V35.6773C18.75 26.343 26.3438 18.75 35.6773 18.75H64.3227C73.657 18.75 81.25 26.343 81.25 35.6773V64.3234C81.25 73.657 73.657 81.25 64.3227 81.25ZM35.6773 23.9586C29.2156 23.9586 23.9586 29.2156 23.9586 35.6773V64.3234C23.9586 70.7852 29.2156 76.0422 35.6773 76.0422H64.3227C70.7844 76.0422 76.0414 70.7852 76.0414 64.3234V35.6773C76.0414 29.2156 70.7844 23.9586 64.3227 23.9586H35.6773Z" fill="white"/>
<path d="M50 65.625C41.3844 65.625 34.375 58.6148 34.375 50C34.375 41.3836 41.3844 34.375 50 34.375C58.6156 34.375 65.625 41.3836 65.625 50C65.625 58.6148 58.6156 65.625 50 65.625ZM50 39.5836C44.2562 39.5836 39.5836 44.2562 39.5836 50C39.5836 55.7445 44.2562 60.4164 50 60.4164C55.7438 60.4164 60.4164 55.7445 60.4164 50C60.4164 44.2562 55.7445 39.5836 50 39.5836Z" fill="white"/>
<path d="M66.602 36.9793C68.5794 36.9793 70.1824 35.3763 70.1824 33.3988C70.1824 31.4214 68.5794 29.8184 66.602 29.8184C64.6245 29.8184 63.0215 31.4214 63.0215 33.3988C63.0215 35.3763 64.6245 36.9793 66.602 36.9793Z" fill="white"/>
</g>
<defs>
<linearGradient id="paint0_linear_1387_149" x1="21.3192" y1="90.9615" x2="78.6816" y2="9.03938" gradientUnits="userSpaceOnUse">
<stop stop-color="#FFB900"/>
<stop offset="1" stop-color="#9100EB"/>
</linearGradient>
<clipPath id="clip0_1387_149">
<rect width="100" height="100" fill="white"/>
</clipPath>
</defs>
</svg>
