<svg width="253" height="73" viewBox="0 0 253 73" fill="none" xmlns="http://www.w3.org/2000/svg">
<path d="M12.3125 0.90625V72H0.0566406V0.90625H12.3125ZM55.9941 29.3438V72H48.6406L29.5098 41.4434V72H22.1562V29.3438H29.5098L48.6992 59.959V29.3438H55.9941ZM79.9238 29.3438V72H72.6289V29.3438H79.9238ZM93.3125 29.3438V35.2031H59.3574V29.3438H93.3125ZM97.4375 29.3438H112.525C115.768 29.3438 118.531 29.832 120.816 30.8086C123.102 31.7852 124.85 33.2305 126.061 35.1445C127.291 37.0391 127.906 39.3828 127.906 42.1758C127.906 44.3047 127.516 46.1797 126.734 47.8008C125.953 49.4219 124.85 50.7891 123.424 51.9023C121.998 52.9961 120.299 53.8457 118.326 54.4512L116.1 55.5352H102.535L102.477 49.7051H112.643C114.4 49.7051 115.865 49.3926 117.037 48.7676C118.209 48.1426 119.088 47.293 119.674 46.2188C120.279 45.125 120.582 43.8945 120.582 42.5273C120.582 41.043 120.289 39.7539 119.703 38.6602C119.137 37.5469 118.258 36.6973 117.066 36.1113C115.875 35.5059 114.361 35.2031 112.525 35.2031H104.791V72H97.4375V29.3438ZM121.783 72L111.764 52.8398L119.469 52.8105L129.635 71.6191V72H121.783ZM167.744 49.5V51.8438C167.744 55.0664 167.324 57.957 166.484 60.5156C165.645 63.0742 164.443 65.252 162.881 67.0488C161.338 68.8457 159.482 70.2227 157.314 71.1797C155.146 72.1172 152.744 72.5859 150.107 72.5859C147.49 72.5859 145.098 72.1172 142.93 71.1797C140.781 70.2227 138.916 68.8457 137.334 67.0488C135.752 65.252 134.521 63.0742 133.643 60.5156C132.783 57.957 132.354 55.0664 132.354 51.8438V49.5C132.354 46.2773 132.783 43.3965 133.643 40.8574C134.502 38.2988 135.713 36.1211 137.275 34.3242C138.857 32.5078 140.723 31.1309 142.871 30.1934C145.039 29.2363 147.432 28.7578 150.049 28.7578C152.686 28.7578 155.088 29.2363 157.256 30.1934C159.424 31.1309 161.289 32.5078 162.852 34.3242C164.414 36.1211 165.615 38.2988 166.455 40.8574C167.314 43.3965 167.744 46.2773 167.744 49.5ZM160.391 51.8438V49.4414C160.391 47.0586 160.156 44.959 159.688 43.1426C159.238 41.3066 158.564 39.7734 157.666 38.543C156.787 37.293 155.703 36.3555 154.414 35.7305C153.125 35.0859 151.67 34.7637 150.049 34.7637C148.428 34.7637 146.982 35.0859 145.713 35.7305C144.443 36.3555 143.359 37.293 142.461 38.543C141.582 39.7734 140.908 41.3066 140.439 43.1426C139.971 44.959 139.736 47.0586 139.736 49.4414V51.8438C139.736 54.2266 139.971 56.3359 140.439 58.1719C140.908 60.0078 141.592 61.5605 142.49 62.8301C143.408 64.0801 144.502 65.0273 145.771 65.6719C147.041 66.2969 148.486 66.6094 150.107 66.6094C151.748 66.6094 153.203 66.2969 154.473 65.6719C155.742 65.0273 156.816 64.0801 157.695 62.8301C158.574 61.5605 159.238 60.0078 159.688 58.1719C160.156 56.3359 160.391 54.2266 160.391 51.8438ZM176.586 29.3438H183.148L195.482 62.2441L207.787 29.3438H214.35L198.061 72H192.846L176.586 29.3438ZM173.598 29.3438H179.838L180.922 57.8203V72H173.598V29.3438ZM211.098 29.3438H217.367V72H210.014V57.8203L211.098 29.3438ZM252.518 66.1699V72H229.871V66.1699H252.518ZM231.951 29.3438V72H224.598V29.3438H231.951ZM249.559 47.1562V52.8984H229.871V47.1562H249.559ZM252.371 29.3438V35.2031H229.871V29.3438H252.371Z" fill="#262626"/>
</svg>
