<svg width="100" height="100" viewBox="0 0 100 100" fill="none" xmlns="http://www.w3.org/2000/svg">
<g clip-path="url(#clip0_1387_159)">
<rect width="100" height="100" rx="50" fill="#FFE812"/>
<path d="M50.5 20C32.5506 20 18 31.4728 18 45.625C18 54.7747 24.0831 62.8031 33.2338 67.3366C32.7359 69.0534 30.0347 78.3816 29.9272 79.1144C29.9272 79.1144 29.8625 79.665 30.2191 79.875C30.5756 80.085 30.995 79.9219 30.995 79.9219C32.0175 79.7791 42.8522 72.1684 44.7275 70.8469C46.6009 71.1122 48.53 71.25 50.5 71.25C68.4494 71.25 83 59.7775 83 45.625C83 31.4728 68.4494 20 50.5 20Z" fill="black"/>
<path d="M32.5313 54.5703C31.4972 54.5703 30.6563 53.7672 30.6563 52.7797V41.6406H27.7306C26.7159 41.6406 25.8906 40.8169 25.8906 39.8047C25.8906 38.7925 26.7163 37.9688 27.7306 37.9688H37.3319C38.3466 37.9688 39.1719 38.7925 39.1719 39.8047C39.1719 40.8169 38.3463 41.6406 37.3319 41.6406H34.4063V52.7797C34.4063 53.7672 33.5653 54.5703 32.5313 54.5703ZM48.9725 54.5459C48.1906 54.5459 47.5925 54.2284 47.4122 53.7178L46.4838 51.2872L40.7663 51.2869L39.8372 53.7191C39.6575 54.2288 39.0597 54.5459 38.2778 54.5459C37.8665 54.5464 37.46 54.4581 37.0859 54.2872C36.5691 54.0487 36.0722 53.3931 36.6416 51.6247L41.1266 39.8197C41.4425 38.9219 42.4022 37.9969 43.6234 37.9691C44.8481 37.9966 45.8078 38.9219 46.1244 39.8216L50.6075 51.6213C51.1781 53.3938 50.6813 54.0497 50.1644 54.2875C49.7902 54.4581 49.3837 54.5463 48.9725 54.5459ZM45.4978 47.9659L43.625 42.6456L41.7522 47.9659H45.4978ZM53.625 54.2969C52.6341 54.2969 51.8281 53.5256 51.8281 52.5781V39.8438C51.8281 38.8097 52.6869 37.9688 53.7422 37.9688C54.7975 37.9688 55.6563 38.8097 55.6563 39.8438V50.8594H59.6406C60.6316 50.8594 61.4375 51.6306 61.4375 52.5781C61.4375 53.5256 60.6316 54.2969 59.6406 54.2969H53.625ZM64.0419 54.5459C63.0078 54.5459 62.1669 53.705 62.1669 52.6709V39.8438C62.1669 38.8097 63.0078 37.9688 64.0419 37.9688C65.0759 37.9688 65.9169 38.8097 65.9169 39.8438V43.8738L71.1481 38.6425C71.4172 38.3734 71.7869 38.2253 72.1881 38.2253C72.6563 38.2253 73.1263 38.4272 73.4784 38.7791C73.8069 39.1072 74.0028 39.5294 74.0297 39.9678C74.0569 40.41 73.9097 40.8153 73.6159 41.1094L69.3431 45.3816L73.9584 51.4959C74.1075 51.6921 74.216 51.9159 74.2778 52.1544C74.3396 52.3928 74.3534 52.6412 74.3184 52.885C74.285 53.129 74.2035 53.3639 74.0786 53.5762C73.9537 53.7885 73.788 53.9738 73.5909 54.1216C73.2667 54.368 72.8704 54.501 72.4631 54.5C72.1726 54.5014 71.8858 54.4346 71.6257 54.3052C71.3656 54.1758 71.1394 53.9872 70.9653 53.7547L66.5681 47.9284L65.9175 48.5791V52.67C65.9169 53.1673 65.7191 53.6441 65.3675 53.9957C65.0159 54.3474 64.5392 54.5453 64.0419 54.5459Z" fill="#FFE812"/>
</g>
<defs>
<clipPath id="clip0_1387_159">
<rect width="100" height="100" fill="white"/>
</clipPath>
</defs>
</svg>
