<svg width="35" height="35" viewBox="0 0 35 35" fill="none" xmlns="http://www.w3.org/2000/svg">
<path fill-rule="evenodd" clip-rule="evenodd" d="M25.6068 20.7419L21.3047 16.2603L16.1525 21.148L20.4546 25.6296L25.6068 20.7419Z" fill="#BEBEBE"/>
<path fill-rule="evenodd" clip-rule="evenodd" d="M29.2657 25.8345L25.5781 21.9932L21.714 25.659L25.4015 29.5003L29.2657 25.8345Z" fill="#BEBEBE"/>
<path fill-rule="evenodd" clip-rule="evenodd" d="M19.198 25.6006L16.125 22.3994L11.6168 26.6762L14.6898 29.8773L19.198 25.6006Z" fill="#BEBEBE"/>
<path fill-rule="evenodd" clip-rule="evenodd" d="M18.1196 3.00824C17.941 2.25879 17.0115 1.98481 16.4512 2.51643L2.5688 15.6862C2.00842 16.2178 2.24027 17.1536 2.98499 17.366L15.1834 20.8449L21.0451 15.2841L18.1196 3.00824Z" fill="#BEBEBE"/>
<path fill-rule="evenodd" clip-rule="evenodd" d="M0.000936354 8.301C-0.0169529 8.59545 0.223876 8.83487 0.518869 8.83487C0.813861 8.83487 1.05108 8.59541 1.07141 8.30112C1.20059 6.43067 2.00543 4.66227 3.34751 3.3281C4.69108 1.99245 6.47243 1.19207 8.3563 1.065C8.64888 1.04526 8.88693 0.809398 8.88693 0.516144C8.88693 0.222891 8.64893 -0.0164799 8.35619 0.000889322C6.18877 0.12949 4.13608 1.04233 2.59213 2.57718C1.04967 4.11054 0.131701 6.14866 0.000936354 8.301ZM2.68221 8.27463C2.65406 8.58309 2.9078 8.83474 3.21755 8.83474C3.52729 8.83474 3.77516 8.58285 3.80948 8.27502C3.93673 7.1337 4.4504 6.06259 5.27503 5.24283C6.10123 4.4215 7.18122 3.91048 8.33176 3.78521C8.63787 3.75188 8.88824 3.50539 8.88824 3.19748C8.88824 2.88956 8.6381 2.63737 8.3314 2.66471C6.88284 2.79386 5.51854 3.42381 4.48188 4.45436C3.44679 5.48335 2.81345 6.83706 2.68221 8.27463Z" fill="#BEBEBE"/>
</svg>
