<svg width="68" height="68" viewBox="0 0 68 68" fill="none" xmlns="http://www.w3.org/2000/svg">
<g filter="url(#filter0_d_782_187)">
<circle cx="34" cy="30" r="30" fill="#262626"/>
</g>
<path fill-rule="evenodd" clip-rule="evenodd" d="M24 19C22.8954 19 22 19.8954 22 21V39C22 40.1046 22.8954 41 24 41H29V39H26H24V37V23V21H26H43H45V23H47V21C47 19.8954 46.1046 19 45 19H24ZM36.3934 30.3934C33.5804 33.2064 32 37.0218 32 41H34.25C34.25 37.6185 35.5933 34.3755 37.9844 31.9844C40.3755 29.5933 43.6185 28.25 47 28.25V26C43.0218 26 39.2064 27.5804 36.3934 30.3934ZM39.9289 33.9289C38.0536 35.8043 37 38.3478 37 41H39.2C39.2 38.9313 40.0218 36.9474 41.4846 35.4846C42.9474 34.0218 44.9313 33.2 47 33.2V31C44.3478 31 41.8043 32.0536 39.9289 33.9289ZM42 41C42 40.3434 42.1293 39.6932 42.3806 39.0866C42.6319 38.48 43.0002 37.9288 43.4645 37.4645C43.9288 37.0002 44.48 36.6319 45.0866 36.3806C45.6932 36.1293 46.3434 36 47 36V41H42Z" fill="white"/>
<defs>
<filter id="filter0_d_782_187" x="0" y="0" width="68" height="68" filterUnits="userSpaceOnUse" color-interpolation-filters="sRGB">
<feFlood flood-opacity="0" result="BackgroundImageFix"/>
<feColorMatrix in="SourceAlpha" type="matrix" values="0 0 0 0 0 0 0 0 0 0 0 0 0 0 0 0 0 0 127 0" result="hardAlpha"/>
<feOffset dy="4"/>
<feGaussianBlur stdDeviation="2"/>
<feComposite in2="hardAlpha" operator="out"/>
<feColorMatrix type="matrix" values="0 0 0 0 0 0 0 0 0 0 0 0 0 0 0 0 0 0 0.25 0"/>
<feBlend mode="normal" in2="BackgroundImageFix" result="effect1_dropShadow_782_187"/>
<feBlend mode="normal" in="SourceGraphic" in2="effect1_dropShadow_782_187" result="shape"/>
</filter>
</defs>
</svg>
