<svg width="30" height="25" viewBox="0 0 30 25" fill="none" xmlns="http://www.w3.org/2000/svg">
<path d="M13.7861 6.0518C13.7861 8.62146 11.6874 10.7105 9.09129 10.7105C6.49513 10.7105 4.39648 8.62146 4.39648 6.0518C4.39648 3.48213 6.49513 1.39307 9.09129 1.39307C11.6874 1.39307 13.7861 3.48213 13.7861 6.0518Z" fill="#BEBEBE" stroke="white"/>
<path d="M0.5 21.7261C0.5 17.619 3.82944 14.2896 7.93651 14.2896H10.2453C14.3524 14.2896 17.6818 17.619 17.6818 21.7261C17.6818 22.7649 16.8397 23.607 15.8009 23.607H2.38095C1.34213 23.607 0.5 22.7649 0.5 21.7261Z" fill="#BEBEBE" stroke="white"/>
<path d="M25.2137 5.55556C25.2137 8.33448 22.8926 10.6111 19.9994 10.6111C17.1063 10.6111 14.7852 8.33448 14.7852 5.55556C14.7852 2.77663 17.1063 0.5 19.9994 0.5C22.8926 0.5 25.2137 2.77663 25.2137 5.55556Z" fill="#BEBEBE" stroke="white"/>
<path d="M10.5 22.4362C10.5 17.9919 14.1028 14.3892 18.547 14.3892H21.453C25.8972 14.3892 29.5 17.9919 29.5 22.4362C29.5 23.5761 28.5759 24.5003 27.4359 24.5003H12.5641C11.4241 24.5003 10.5 23.5761 10.5 22.4362Z" fill="#BEBEBE" stroke="white"/>
</svg>
