<svg width="36" height="30" viewBox="0 0 36 30" fill="none" xmlns="http://www.w3.org/2000/svg">
<path fill-rule="evenodd" clip-rule="evenodd" d="M0.0167461 2.74C0.144192 1.75827 0.983544 1 2 1H34C35.0165 1 35.8558 1.75827 35.9833 2.74H0.0167461ZM0 3.74V27C0 28.1046 0.895431 29 2 29H34C35.1046 29 36 28.1046 36 27V3.74H0ZM32.4008 23.96C32.4008 24.8878 31.5949 25.64 30.6008 25.64C29.6067 25.64 28.8008 24.8878 28.8008 23.96C28.8008 23.0322 29.6067 22.28 30.6008 22.28C31.5949 22.28 32.4008 23.0322 32.4008 23.96Z" fill="#BEBEBE"/>
</svg>
