<svg width="40" height="40" viewBox="0 0 40 40" fill="none" xmlns="http://www.w3.org/2000/svg">
<path fill-rule="evenodd" clip-rule="evenodd" d="M4.04692 31.4922L17.8829 6.24219C18.7969 4.58594 21.2032 4.58594 22.1172 6.24219L35.961 31.4922C36.8282 33.0703 35.6641 35 33.8438 35H6.16411C4.33598 35 3.17192 33.0703 4.04692 31.4922ZM21.0938 26.25L21.375 16.7188H18.625L18.9063 26.25H21.0938ZM18.5079 30C18.5079 30.8047 19.1641 31.4375 20 31.4375C20.836 31.4375 21.4922 30.8047 21.4922 30C21.4922 29.1953 20.836 28.5625 20 28.5625C19.1641 28.5625 18.5079 29.1953 18.5079 30Z" fill="#D1222E"/>
</svg>
